<?xml version="1.0" standalone="yes"?>

<svg version="1.1" viewBox="0.0 0.0 512.0 512.0" fill="none" stroke="none" stroke-linecap="square" stroke-miterlimit="10" xmlns="http://www.w3.org/2000/svg" xmlns:xlink="http://www.w3.org/1999/xlink"><clipPath id="p.0"><path d="m0 0l512.0 0l0 512.0l-512.0 0l0 -512.0z" clip-rule="nonzero"></path></clipPath><g clip-path="url(#p.0)"><path fill="#b34ab5" d="m0 0l512.0 0l0 512.0l-512.0 0z" fill-rule="evenodd"></path><path fill="#000000" fill-opacity="0.0" d="m0 80.0l561.98425 0l0 241.98425l-561.98425 0z" fill-rule="evenodd"></path><path fill="#ffffff" d="m62.25 279.87024q-19.96875 -0.40625 -31.671875 -13.09375q-11.703125 -12.703125 -12.734375 -35.265625q-0.421875 -7.796875 0.625 -15.8125l3.84375 -25.171875q3.015625 -20.171875 11.75 -35.765625q8.734375 -15.609375 21.734375 -23.203125q13.0 -7.59375 29.328125 -7.28125q20.1875 0.421875 31.671875 13.796875q11.5 13.359375 12.328125 36.546875q0.203125 8.734375 -0.9375 16.53125l-3.4375 23.203125q-4.671875 31.203125 -21.0625 48.625q-16.375 17.40625 -41.4375 16.890625zm36.09375 -89.75q1.25 -10.71875 1.25 -16.546875q-0.53125 -23.1875 -16.75 -23.8125q-12.484375 -0.515625 -20.125 9.421875q-7.640625 9.921875 -10.65625 31.140625l-3.640625 25.484375q-1.25 10.296875 -0.9375 16.125q0.515625 21.828125 17.15625 22.5625q11.859375 0.421875 19.453125 -8.734375q7.59375 -9.15625 10.609375 -29.953125l3.640625 -25.6875zm66.23131 87.671875l-28.8125 0l27.671875 -159.75l28.90625 0l-27.765625 159.75zm53.227875 0l-28.8125 0l19.5625 -112.53125l28.796875 0l-19.546875 112.53125zm-5.515625 -141.14062q0 -7.171875 4.515625 -11.6875q4.53125 -4.53125 11.09375 -4.53125q6.4375 -0.203125 10.953125 4.21875q4.53125 4.421875 4.53125 10.96875q0 7.28125 -4.53125 11.8125q-4.515625 4.515625 -11.0625 4.515625q-6.65625 0.203125 -11.078125 -4.21875q-4.421875 -4.421875 -4.421875 -11.078125zm71.85289 99.015625l24.75 -70.40625l30.578125 0l-47.53125 112.53125l-27.359375 0l-12.57814 -112.53125l29.437515 0l2.703125 70.40625zm88.1279 -4.46875l-23.8125 0l14.875 -104.84375l30.46875 0l-21.53125 104.84375zm-33.28125 32.859375q0 -7.171875 4.515625 -11.84375q4.53125 -4.6875 11.1875 -4.890625q6.65625 0 11.125 4.46875q4.484375 4.46875 4.484375 11.125q0 7.171875 -4.375 11.859375q-4.375 4.6875 -11.234375 4.890625q-6.96875 0 -11.34375 -4.578125q-4.359375 -4.578125 -4.359375 -11.03125zm104.30075 13.734375q-0.84375 -3.53125 -0.84375 -8.734375q-9.5625 10.921875 -21.828125 10.921875q-13.0 -0.21875 -20.859375 -9.578125q-7.84375 -9.359375 -7.234375 -23.296875q0.9375 -17.875 13.9375 -28.015625q13.0 -10.140625 34.953125 -10.140625l8.421875 0l1.359375 -9.15625l0.3125 -4.6875q0 -9.046875 -7.28125 -9.046875q-10.09375 -0.3125 -12.28125 12.90625l-28.59375 0.203125q0.9375 -16.015625 13.3125 -26.15625q12.375 -10.140625 30.15625 -9.9375q16.75 0.421875 25.640625 10.5625q8.890625 10.140625 7.21875 26.78125l-9.140625 57.203125l-0.421875 5.5q-0.421875 7.28125 1.453125 12.796875l-0.09375 1.875l-28.1875 0zm-14.765625 -20.796875q7.578125 0.203125 14.140625 -6.65625l5.09375 -23.828125l-6.234375 0q-8.328125 0.421875 -13.421875 5.625q-5.09375 5.203125 -6.140625 13.109375l-0.09375 3.953125q0 3.328125 1.703125 5.515625q1.71875 2.171875 4.953125 2.28125z" fill-rule="nonzero"></path><path fill="#000000" fill-opacity="0.0" d="m112.0 254.0l368.0 0l0 179.90552l-368.0 0z" fill-rule="evenodd"></path><path fill="#ffffff" d="m194.12048 369.5475l-34.625 0l3.0625 -17.171875l34.625 0l-3.0625 17.171875zm11.982513 36.8125l18.328125 -105.9375l26.125 0.078125q11.5625 0.296875 19.53125 6.046875q7.96875 5.734375 11.421875 15.921875q3.453125 10.1875 1.859375 22.78125l-2.328125 15.5q-3.203125 21.375 -15.46875 33.453125q-12.25 12.078125 -30.8125 12.15625l-28.65625 0zm36.15625 -88.109375l-12.21875 70.359375l5.15625 0.140625q10.84375 0 16.8125 -6.28125q5.96875 -6.296875 8.0 -20.265625l2.484375 -17.171875q1.015625 -8.375 0.796875 -12.21875q-0.375 -7.28125 -3.71875 -10.765625q-3.34375 -3.5 -9.890625 -3.71875l-7.421875 -0.078125zm82.83566 88.109375q-0.59375 -2.46875 -0.59375 -6.109375q-6.6875 7.640625 -15.265625 7.640625q-9.09375 -0.15625 -14.59375 -6.703125q-5.484375 -6.546875 -5.0625 -16.296875q0.65625 -12.5 9.75 -19.59375q9.09375 -7.09375 24.453125 -7.09375l5.890625 0l0.953125 -6.40625l0.21875 -3.28125q0 -6.328125 -5.09375 -6.328125q-7.0625 -0.21875 -8.59375 9.03125l-20.0 0.140625q0.65625 -11.203125 9.3125 -18.296875q8.65625 -7.09375 21.09375 -6.953125q11.71875 0.296875 17.9375 7.390625q6.21875 7.09375 5.046875 18.734375l-6.390625 40.015625l-0.296875 3.84375q-0.296875 5.09375 1.015625 8.953125l-0.0625 1.3125l-19.71875 0zm-10.328125 -14.546875q5.296875 0.140625 9.890625 -4.65625l3.5625 -16.671875l-4.359375 0q-5.828125 0.296875 -9.390625 3.9375q-3.5625 3.640625 -4.296875 9.171875l-0.0625 2.765625q0 2.328125 1.1875 3.859375q1.203125 1.515625 3.46875 1.59375zm82.138245 -83.53125l-3.34375 19.359375l10.1875 0l-2.703125 15.5l-10.1875 0l-6.6875 39.640625l-0.21875 2.328125q-0.28125 4.875 4.078125 5.03125q1.234375 0.0625 4.953125 -0.375l-1.828125 16.15625q-4.515625 1.8125 -10.46875 1.8125q-8.8125 -0.140625 -13.25 -6.3125q-4.4375 -6.1875 -3.421875 -16.890625l6.765625 -41.390625l-8.875 0l2.703125 -15.5l8.796875 0l3.421875 -19.359375l20.078125 0zm42.300476 98.078125q-0.59375 -2.46875 -0.59375 -6.109375q-6.6875 7.640625 -15.265625 7.640625q-9.09375 -0.15625 -14.59375 -6.703125q-5.484375 -6.546875 -5.0625 -16.296875q0.65625 -12.5 9.75 -19.59375q9.09375 -7.09375 24.453125 -7.09375l5.890625 0l0.953125 -6.40625l0.21875 -3.28125q0 -6.328125 -5.09375 -6.328125q-7.0625 -0.21875 -8.59375 9.03125l-20.0 0.140625q0.65625 -11.203125 9.3125 -18.296875q8.65625 -7.09375 21.09375 -6.953125q11.71875 0.296875 17.9375 7.390625q6.21875 7.09375 5.046875 18.734375l-6.390625 40.015625l-0.296875 3.84375q-0.296875 5.09375 1.015625 8.953125l-0.0625 1.3125l-19.71875 0zm-10.328125 -14.546875q5.296875 0.140625 9.890625 -4.65625l3.5625 -16.671875l-4.359375 0q-5.828125 0.296875 -9.390625 3.9375q-3.5625 3.640625 -4.296875 9.171875l-0.0625 2.765625q0 2.328125 1.1875 3.859375q1.203125 1.515625 3.46875 1.59375z" fill-rule="nonzero"></path></g></svg>

